<svg height="511pt" viewBox="0 1 511 511.99815" width="511pt" xmlns="http://www.w3.org/2000/svg"><g fill="#4482c3"><path d="m404.332031 40.84375 11.21875-11.21875v31.117188c0 4.792968 3.886719 8.679687 8.679688 8.679687s8.679687-3.886719 8.679687-8.679687v-31.117188l11.21875 11.21875c3.40625 3.289062 8.816406 3.242188 12.164063-.105469 3.347656-3.347656 3.394531-8.757812.105469-12.164062l-26.03125-26.035157c-3.390626-3.386718-8.882813-3.386718-12.273438 0l-26.03125 26.035157c-3.289062 3.40625-3.242188 8.816406.105469 12.164062 3.347656 3.347657 8.757812 3.394531 12.164062.105469zm0 0"/><path d="m367.078125 95.457031h31.117187c4.792969 0 8.679688-3.886719 8.679688-8.679687 0-4.792969-3.886719-8.675782-8.679688-8.675782h-31.117187l11.21875-11.222656c2.257813-2.179687 3.160156-5.40625 2.367187-8.4375-.792968-3.035156-3.164062-5.40625-6.199218-6.199218-3.03125-.792969-6.257813.109374-8.4375 2.367187l-26.035156 26.03125c-3.386719 3.390625-3.386719 8.882813 0 12.273437l26.035156 26.03125c3.40625 3.289063 8.816406 3.242188 12.164062-.105468s3.394532-8.757813.105469-12.164063zm0 0"/><path d="m444.128906 132.710938-11.21875 11.21875v-31.117188c0-4.792969-3.886718-8.679688-8.679687-8.679688s-8.679688 3.886719-8.679688 8.679688v31.117188l-11.21875-11.21875c-3.40625-3.289063-8.816406-3.242188-12.164062.105468-3.347657 3.347656-3.394531 8.757813-.105469 12.164063l26.03125 26.035156c.808594.804687 1.769531 1.441406 2.820312 1.875 2.121094.890625 4.511719.890625 6.632813 0 1.050781-.433594 2.011719-1.070313 2.820313-1.875l26.03125-26.035156c3.289062-3.40625 3.242187-8.816407-.105469-12.164063-3.347657-3.347656-8.757813-3.394531-12.164063-.105468zm0 0"/><path d="m510.34375 90.09375c1.339844-3.242188.601562-6.96875-1.875-9.453125l-26.035156-26.03125c-3.40625-3.289063-8.816406-3.242187-12.164063.105469-3.347656 3.347656-3.394531 8.757812-.105469 12.164062l11.21875 11.222656h-31.117187c-4.792969 0-8.679687 3.882813-8.679687 8.675782 0 4.792968 3.886718 8.679687 8.679687 8.679687h31.117187l-11.21875 11.21875c-2.257812 2.179688-3.160156 5.40625-2.367187 8.441407.792969 3.03125 3.164063 5.402343 6.199219 6.195312 3.03125.796875 6.257812-.109375 8.4375-2.367188l26.035156-26.03125c.804688-.808593 1.441406-1.765624 1.875-2.820312zm0 0"/></g><path d="m354.808594 244.457031v137.371094s0 46.773437-29.59375 73.851563c-3.351563 3.210937-5.207032 7.679687-5.121094 12.320312v26.640625c-.027344 9.574219-7.78125 17.328125-17.355469 17.359375h-138.847656c-9.574219-.03125-17.328125-7.785156-17.355469-17.359375v-3.210937c.019532-13.910157-5.582031-27.242188-15.53125-36.964844-16.75-16.316406-42.609375-44.519532-53.890625-72.636719-17.355469-43.390625-52.070312-104.136719-69.425781-121.492187-17.355469-17.355469 0-34.710938 17.355469-34.710938s52.070312 34.710938 69.425781 60.746094c5.519531 8.375 11.984375 16.09375 19.265625 22.996094 4.316406 4.015624 10.386719 5.554687 16.097656 4.078124 5.707031-1.476562 10.273438-5.761718 12.105469-11.367187 3.304688-10.699219 4.855469-21.867187 4.597656-33.0625v-199.59375c-.050781-11.03125 6.925782-20.875 17.355469-24.472656 2.773437-1.050781 5.714844-1.578125 8.679687-1.5625 14.378907 0 26.03125 11.65625 26.03125 26.035156v104.136719c-.050781-11.035156 6.929688-20.875 17.359376-24.472656 2.769531-1.050782 5.710937-1.582032 8.675781-1.5625 14.378906 0 26.035156 11.65625 26.035156 26.035156v26.03125c0-6.902344 2.746094-13.523438 7.636719-18.394532 2.714844-2.761718 6.046875-4.84375 9.71875-6.074218 2.769531-1.050782 5.714844-1.582032 8.679687-1.5625 14.375 0 26.03125 11.65625 26.03125 26.03125v43.390625c0-6.902344 2.746094-13.523438 7.636719-18.398438 2.71875-2.757812 6.046875-4.839843 9.71875-6.074219 3.382812-1.242187 6.996094-1.746093 10.589844-1.472656 13.941406 1.488282 24.421875 13.402344 24.125 27.421875zm0 0" fill="#fdd7ad"/><path d="m172.570312 43.386719c-2.964843-.015625-5.90625.511719-8.679687 1.5625-10.429687 3.597656-17.40625 13.441406-17.355469 24.472656v199.59375c.257813 11.195313-1.292968 22.363281-4.597656 33.0625-1.367188 4.019531-4.140625 7.410156-7.8125 9.546875 4.511719 2.648438 9.980469 3.109375 14.871094 1.253906 4.890625-1.855468 8.675781-5.828125 10.296875-10.800781 3.304687-10.699219 4.855469-21.867187 4.597656-33.0625v-199.59375c-.050781-11.03125 6.925781-20.875 17.355469-24.472656-2.769532-1.050781-5.710938-1.578125-8.675782-1.5625zm0 0" fill="#cbb292"/><path d="m215.960938 149.085938c-10.429688 3.597656-17.410157 13.4375-17.359376 24.472656v78.101562c0 4.792969 3.886719 8.675782 8.679688 8.675782s8.679688-3.882813 8.679688-8.675782v-78.101562c-.054688-11.035156 6.925781-20.875 17.355468-24.472656-5.597656-2.082032-11.757812-2.082032-17.355468 0zm0 0" fill="#cbb292"/><path d="m268.027344 175.121094c-3.671875 1.230468-7.003906 3.3125-9.71875 6.074218-4.890625 4.871094-7.636719 11.492188-7.636719 18.394532v52.070312c0 4.792969 3.882813 8.675782 8.675781 8.675782 4.792969 0 8.679688-3.882813 8.679688-8.675782v-52.070312c-.054688-11.03125 6.925781-20.871094 17.355468-24.46875-5.597656-2.085938-11.757812-2.085938-17.355468 0zm0 0" fill="#cbb292"/><path d="m328.773438 216.949219c-2.964844-.019531-5.90625.507812-8.679688 1.558593-3.671875 1.234376-7 3.316407-9.71875 6.074219-4.890625 4.875-7.636719 11.496094-7.636719 18.398438v17.355469c0 4.792968 3.886719 8.679687 8.679688 8.679687s8.675781-3.886719 8.675781-8.679687v-17.355469c-.050781-11.03125 6.925781-20.871094 17.355469-24.472657-2.769531-1.050781-5.710938-1.578124-8.675781-1.558593zm0 0" fill="#cbb292"/><path d="m320.09375 303.726562c-4.792969 0-8.675781 3.886719-8.675781 8.679688v52.066406c0 4.792969 3.882812 8.679688 8.675781 8.679688s8.679688-3.886719 8.679688-8.679688v-52.066406c0-4.792969-3.886719-8.679688-8.679688-8.679688zm0 0" fill="#fee7ce"/><path d="m320.3125 390.628906c-4.675781.074219-8.527344 3.695313-8.894531 8.355469-.652344 4.40625-2.820313 8.445313-6.136719 11.421875-2.253906 2.179688-3.160156 5.402344-2.367188 8.4375.796876 3.035156 3.164063 5.40625 6.199219 6.199219 3.035157.792969 6.261719-.109375 8.4375-2.367188 6.605469-6.109375 10.617188-14.515625 11.222657-23.492187-.007813-4.683594-3.777344-8.492188-8.460938-8.554688zm0 0" fill="#fee7ce"/><path d="m189.925781 468.609375h-8.679687c-4.792969 0-8.675782 3.882813-8.675782 8.675781 0 4.792969 3.882813 8.679688 8.675782 8.679688h8.679687c4.792969 0 8.675781-3.886719 8.675781-8.679688 0-4.792968-3.882812-8.675781-8.675781-8.675781zm0 0" fill="#fee7ce"/><path d="m285.382812 468.609375h-60.746093c-4.792969 0-8.675781 3.882813-8.675781 8.675781 0 4.792969 3.882812 8.679688 8.675781 8.679688h60.746093c4.792969 0 8.679688-3.886719 8.679688-8.679688 0-4.792968-3.886719-8.675781-8.679688-8.675781zm0 0" fill="#fee7ce"/></svg>