<?xml version="1.0" encoding="UTF-8" standalone="no"?>
<!DOCTYPE svg PUBLIC "-//W3C//DTD SVG 1.1//EN" "http://www.w3.org/Graphics/SVG/1.1/DTD/svg11.dtd">
<svg version="1.1" xmlns="http://www.w3.org/2000/svg" xmlns:xlink="http://www.w3.org/1999/xlink" preserveAspectRatio="xMidYMid meet" viewBox="0 0 640 640" width="640" height="640"><defs><path d="M472 440C480.83 439.97 487.97 432.83 488 424C488 396.8 488 179.2 488 152C487.97 143.17 480.83 136.03 472 136C456.8 136 335.2 136 320 136C320 118.32 305.68 104 280 104C273.6 104 222.4 104 216 104C233.67 104 248 118.33 248 136C240 136 176 136 168 136C159.17 135.97 152.03 128.83 152 120C152 118.4 152 105.6 152 104C152 86.33 137.67 72 120 72C112 72 48 72 40 72C31.17 72.03 24.03 79.17 24 88C24 121.6 24 390.4 24 424C24.03 432.83 31.17 439.97 40 440C40 440 428.8 440 472 440Z" id="abgKPyVGl"></path><path d="M122.83 64.1L124.23 64.23L125.61 64.4L126.98 64.62L128.34 64.88L129.68 65.19L131.01 65.55L132.31 65.95L133.6 66.39L134.87 66.88L136.12 67.41L137.35 67.97L138.56 68.58L139.74 69.23L140.9 69.91L142.04 70.64L143.15 71.4L144.23 72.2L145.29 73.03L146.32 73.9L147.32 74.8L148.28 75.73L149.22 76.7L150.12 77.7L151 78.73L151.83 79.79L152.64 80.88L153.4 82L154.13 83.15L154.82 84.33L155.48 85.53L156.09 86.75L156.66 88.01L157.2 89.28L157.69 90.58L158.13 91.9L158.53 93.25L158.89 94.61L159.2 96L280 96L281.86 96.02L283.69 96.1L285.5 96.21L287.28 96.38L289.03 96.59L290.75 96.84L292.44 97.14L294.11 97.48L295.74 97.87L297.34 98.3L298.91 98.77L300.44 99.28L301.94 99.84L303.41 100.43L304.84 101.06L306.24 101.73L307.6 102.44L308.93 103.19L310.21 103.98L311.46 104.8L312.66 105.66L313.83 106.55L314.96 107.48L316.04 108.44L317.09 109.44L318.09 110.47L319.04 111.53L319.96 112.62L320.82 113.75L321.65 114.9L322.42 116.08L323.15 117.3L323.83 118.54L324.46 119.81L325.05 121.11L325.58 122.44L326.06 123.79L326.49 125.17L326.87 126.57L327.2 128L472 128L472.99 128.02L473.97 128.08L474.94 128.18L475.89 128.31L476.84 128.49L477.77 128.7L478.68 128.94L479.59 129.22L480.47 129.54L481.34 129.89L482.19 130.27L483.03 130.68L483.85 131.12L484.64 131.6L485.42 132.1L486.17 132.63L486.91 133.19L487.62 133.78L488.31 134.39L488.97 135.03L489.61 135.69L490.22 136.38L490.81 137.09L491.37 137.83L491.9 138.58L492.4 139.36L492.88 140.15L493.32 140.97L493.73 141.81L494.11 142.66L494.46 143.53L494.78 144.41L495.06 145.32L495.3 146.23L495.51 147.16L495.69 148.11L495.82 149.06L495.92 150.03L495.98 151.01L496 152L496 424L495.98 424.99L495.92 425.97L495.82 426.94L495.69 427.89L495.51 428.84L495.3 429.77L495.06 430.68L494.78 431.59L494.46 432.47L494.11 433.34L493.73 434.19L493.32 435.03L492.88 435.85L492.4 436.64L491.9 437.42L491.37 438.17L490.81 438.91L490.22 439.62L489.61 440.31L488.97 440.97L488.31 441.61L487.62 442.22L486.91 442.81L486.17 443.37L485.42 443.9L484.64 444.4L483.85 444.88L483.03 445.32L482.19 445.73L481.34 446.11L480.47 446.46L479.59 446.78L478.68 447.06L477.77 447.3L476.84 447.51L475.89 447.69L474.94 447.82L473.97 447.92L472.99 447.98L472 448L40 448L39.01 447.98L38.03 447.92L37.06 447.82L36.11 447.69L35.16 447.51L34.23 447.3L33.32 447.06L32.41 446.78L31.53 446.46L30.66 446.11L29.81 445.73L28.97 445.32L28.15 444.88L27.36 444.4L26.58 443.9L25.83 443.37L25.09 442.81L24.38 442.22L23.69 441.61L23.03 440.97L22.39 440.31L21.78 439.62L21.19 438.91L20.63 438.17L20.1 437.42L19.6 436.64L19.12 435.85L18.68 435.03L18.27 434.19L17.89 433.34L17.54 432.47L17.22 431.59L16.94 430.68L16.7 429.77L16.49 428.84L16.31 427.89L16.18 426.94L16.08 425.97L16.02 424.99L16 424L16 88L16.02 87.01L16.08 86.03L16.18 85.06L16.31 84.11L16.49 83.16L16.7 82.23L16.94 81.32L17.22 80.41L17.54 79.53L17.89 78.66L18.27 77.81L18.68 76.97L19.12 76.15L19.6 75.36L20.1 74.58L20.63 73.83L21.19 73.09L21.78 72.38L22.39 71.69L23.03 71.03L23.69 70.39L24.38 69.78L25.09 69.19L25.83 68.63L26.58 68.1L27.36 67.6L28.15 67.12L28.97 66.68L29.81 66.27L30.66 65.89L31.53 65.54L32.41 65.22L33.32 64.94L34.23 64.7L35.16 64.49L36.11 64.31L37.06 64.18L38.03 64.08L39.01 64.02L40 64L120 64L121.42 64.03L122.83 64.1ZM39.67 80.01L39.34 80.03L39.02 80.06L38.7 80.1L38.39 80.16L38.08 80.23L37.77 80.31L37.47 80.41L37.18 80.51L36.89 80.63L36.6 80.76L36.32 80.89L36.05 81.04L35.79 81.2L35.53 81.37L35.28 81.54L35.03 81.73L34.79 81.93L34.56 82.13L34.34 82.34L34.13 82.56L33.93 82.79L33.73 83.03L33.54 83.28L33.37 83.53L33.2 83.79L33.04 84.05L32.89 84.32L32.76 84.6L32.63 84.89L32.51 85.18L32.41 85.47L32.31 85.77L32.23 86.08L32.16 86.39L32.1 86.7L32.06 87.02L32.03 87.34L32.01 87.67L32 88L32 424L32.01 424.33L32.03 424.66L32.06 424.98L32.1 425.3L32.16 425.61L32.23 425.92L32.31 426.23L32.41 426.53L32.51 426.82L32.63 427.11L32.76 427.4L32.89 427.68L33.04 427.95L33.2 428.21L33.37 428.47L33.54 428.72L33.73 428.97L33.93 429.21L34.13 429.44L34.34 429.66L34.56 429.87L34.79 430.07L35.03 430.27L35.28 430.46L35.53 430.63L35.79 430.8L36.05 430.96L36.32 431.11L36.6 431.24L36.89 431.37L37.18 431.49L37.47 431.59L37.77 431.69L38.08 431.77L38.39 431.84L38.7 431.9L39.02 431.94L39.34 431.97L39.67 431.99L40 432L472 432L472.33 431.99L472.66 431.97L472.98 431.94L473.3 431.9L473.61 431.84L473.92 431.77L474.23 431.69L474.53 431.59L474.82 431.49L475.11 431.37L475.4 431.24L475.68 431.11L475.95 430.96L476.21 430.8L476.47 430.63L476.72 430.46L476.97 430.27L477.21 430.07L477.44 429.87L477.66 429.66L477.87 429.44L478.07 429.21L478.27 428.97L478.46 428.72L478.63 428.47L478.8 428.21L478.96 427.95L479.11 427.68L479.24 427.4L479.37 427.11L479.49 426.82L479.59 426.53L479.69 426.23L479.77 425.92L479.84 425.61L479.9 425.3L479.94 424.98L479.97 424.66L479.99 424.33L480 424L480 152L479.99 151.67L479.97 151.34L479.94 151.02L479.9 150.7L479.84 150.39L479.77 150.08L479.69 149.77L479.59 149.47L479.49 149.18L479.37 148.89L479.24 148.6L479.11 148.32L478.96 148.05L478.8 147.79L478.63 147.53L478.46 147.28L478.27 147.03L478.07 146.79L477.87 146.56L477.66 146.34L477.44 146.13L477.21 145.93L476.97 145.73L476.72 145.54L476.47 145.37L476.21 145.2L475.95 145.04L475.68 144.89L475.4 144.76L475.11 144.63L474.82 144.51L474.53 144.41L474.23 144.31L473.92 144.23L473.61 144.16L473.3 144.1L472.98 144.06L472.66 144.03L472.33 144.01L472 144L168 144L167.01 143.98L166.03 143.92L165.06 143.82L164.11 143.69L163.16 143.51L162.23 143.3L161.32 143.06L160.41 142.78L159.53 142.46L158.66 142.11L157.81 141.73L156.97 141.32L156.15 140.88L155.36 140.4L154.58 139.9L153.83 139.37L153.09 138.81L152.38 138.22L151.69 137.61L151.03 136.97L150.39 136.31L149.78 135.62L149.19 134.91L148.63 134.17L148.1 133.42L147.6 132.64L147.12 131.85L146.68 131.03L146.27 130.19L145.89 129.34L145.54 128.47L145.22 127.59L144.94 126.68L144.7 125.77L144.49 124.84L144.31 123.89L144.18 122.94L144.08 121.97L144.02 120.99L144 120L144 104L143.98 103.01L143.92 102.03L143.82 101.06L143.69 100.11L143.51 99.16L143.3 98.23L143.06 97.32L142.78 96.41L142.46 95.53L142.11 94.66L141.73 93.81L141.32 92.97L140.88 92.15L140.4 91.36L139.9 90.58L139.37 89.83L138.81 89.09L138.22 88.38L137.61 87.69L136.97 87.03L136.31 86.39L135.62 85.78L134.91 85.19L134.17 84.63L133.42 84.1L132.64 83.6L131.85 83.12L131.03 82.68L130.19 82.27L129.34 81.89L128.47 81.54L127.59 81.22L126.68 80.94L125.77 80.7L124.84 80.49L123.89 80.31L122.94 80.18L121.97 80.08L120.99 80.02L120 80L40 80L39.67 80.01ZM248.19 112.51L248.56 113.02L248.93 113.54L249.29 114.06L249.64 114.59L249.98 115.13L250.32 115.67L250.64 116.21L250.96 116.76L251.26 117.32L251.56 117.88L251.85 118.44L252.13 119.01L252.4 119.58L252.66 120.16L252.91 120.74L253.16 121.33L253.39 121.92L253.61 122.51L253.83 123.11L254.03 123.71L254.23 124.31L254.42 124.92L254.59 125.53L254.76 126.14L254.92 126.76L255.06 127.38L255.2 128L310.4 128L309.96 126.96L309.47 125.94L308.93 124.95L308.33 124L307.68 123.08L306.98 122.19L306.23 121.33L305.43 120.5L304.58 119.71L303.68 118.96L302.73 118.24L301.74 117.55L300.69 116.9L299.61 116.29L298.47 115.72L297.3 115.18L296.08 114.69L294.82 114.23L293.51 113.82L292.17 113.44L290.78 113.11L289.35 112.82L287.89 112.57L286.38 112.37L284.84 112.21L283.26 112.09L281.65 112.02L280 112L247.8 112L248.19 112.51ZM160 120L160.01 120.38L160.03 120.75L160.08 121.12L160.14 121.48L160.21 121.83L160.3 122.18L160.41 122.53L160.53 122.87L160.66 123.2L160.81 123.52L160.98 123.83L161.15 124.14L161.34 124.44L161.54 124.72L161.76 125L161.98 125.27L162.22 125.53L162.47 125.78L162.73 126.02L163 126.24L163.28 126.46L163.56 126.66L163.86 126.85L164.17 127.02L164.48 127.19L164.8 127.34L165.13 127.47L165.47 127.59L165.82 127.7L166.17 127.79L166.52 127.86L166.88 127.92L167.25 127.97L167.62 127.99L168 128L238.53 128L238.22 127.19L237.89 126.39L237.54 125.61L237.16 124.85L236.75 124.11L236.32 123.38L235.86 122.67L235.38 121.98L234.88 121.31L234.36 120.66L233.81 120.02L233.25 119.41L232.66 118.82L232.06 118.25L231.43 117.7L230.79 117.18L230.13 116.68L229.46 116.2L228.77 115.74L228.06 115.31L227.33 114.9L226.6 114.52L225.85 114.16L225.08 113.82L224.31 113.52L223.52 113.24L222.72 112.99L221.91 112.76L221.09 112.57L220.26 112.4L219.42 112.26L218.58 112.15L217.73 112.07L216.87 112.02L216 112L160 112L160 120Z" id="aR5Fnyp6O"></path></defs><g><g><g><use xlink:href="#abgKPyVGl" opacity="1" fill="#78b9eb" fill-opacity="1"></use><g><use xlink:href="#abgKPyVGl" opacity="1" fill-opacity="0" stroke="#000000" stroke-width="1" stroke-opacity="0"></use></g></g><g><use xlink:href="#aR5Fnyp6O" opacity="1" fill="#1a6fb0" fill-opacity="1"></use><g><use xlink:href="#aR5Fnyp6O" opacity="1" fill-opacity="0" stroke="#000000" stroke-width="1" stroke-opacity="0"></use></g></g></g></g></svg>