<svg id="Layer_1" enable-background="new 0 0 511.123 511.123" height="512" viewBox="0 0 511.123 511.123" width="512" xmlns="http://www.w3.org/2000/svg"><path d="m276.7 254.825h-211.217c-8.836 0-16 7.164-16 16v224.298c0 8.836 7.164 16 16 16h211.217c8.836 0 16-7.164 16-16v-224.298c0-8.837-7.163-16-16-16z" fill="#a2d0f9"/><path d="m276.7 254.825h-211.217c-8.836 0-16 7.164-16 16v74.429c4.937-1.074 10.464-2.509 16.664-4.369 77.263-23.179 81.914-47.061 113.304-11.941 29.673 33.199 74.604 87.092 113.25 47.796v-105.915c-.001-8.837-7.164-16-16.001-16z" fill="#9dcbed"/><path d="m508.656 263.75-91.479-185.563c-2.694-5.465-8.258-8.925-14.351-8.925h-207.376c-11.809 0-19.604 12.42-14.351 23.075l91.479 185.563c2.694 5.465 8.258 8.925 14.351 8.925h207.376c11.808 0 19.605-12.419 14.351-23.075z" fill="#80b9ed"/><path d="m453.118 264.083-60.576-130.361c-2.624-5.646-8.284-9.257-14.51-9.257h-101.332c-8.836 0-16 7.164-16 16v354.658c0 8.836 7.164 16 16 16h161.908c8.836 0 16-7.164 16-16 .001-245.607.64-226.458-1.49-231.04z" fill="#8bc4ff"/><path d="m392.543 133.722c-2.624-5.646-8.284-9.257-14.51-9.257h-101.333c-8.836 0-16 7.164-16 16v249.987c13.183.805 26.312-5.032 38.641-21.471 40.036-53.382 51.237-124.324 103.252-99.038 20.156 9.799 37.755 18.64 52.015 25.723v-24.84c.001-5.044 4.121 5.332-62.065-137.104z" fill="#84bef4"/><path d="m404.809 69.262h-296.518c-6.093 0-11.657 3.46-14.351 8.925l-91.479 185.563c-5.221 10.592 2.472 23.075 14.351 23.075h296.518c6.093 0 11.657-3.46 14.351-8.925l91.479-185.564c5.221-10.591-2.47-23.074-14.351-23.074z" fill="#b4dcf9"/><path d="m210.811 0h-55.044c-8.836 0-16 7.164-16 16v101.399c0 8.836 7.164 16 16 16h55.044c8.836 0 16-7.164 16-16v-101.399c0-8.836-7.164-16-16-16z" fill="#8bc4ff"/><path d="m357.654 375c-22.725 0-41.213 18.488-41.213 41.213v78.91c0 8.836 7.164 16 16 16h50.426c8.836 0 16-7.164 16-16v-78.91c0-22.725-18.488-41.213-41.213-41.213z" fill="#80b9ed"/><path d="m155.767 133.399h55.044c8.836 0 16-7.164 16-16v-52.615c-21.998 5.318-44.217 14.367-55.719 14.58-11.295.209-22.232-10.011-31.325-22.423v60.458c0 8.837 7.163 16 16 16z" fill="#84bef4"/><path d="m327.681 277.899 57.688-117.019c-44.146.928-98.248 32.076-191.358 65.013-62.891 22.247-115.372-8.647-151.376-43.635l-40.174 81.492c-5.221 10.592 2.472 23.075 14.351 23.075h296.518c6.093 0 11.657-3.461 14.351-8.926z" fill="#a8d4ef"/><path d="m508.656 263.75-87.851-178.205c.157-8.893-6.996-16.283-15.996-16.283h-177.998v-38.467c7.266-1.511 12.726-7.948 12.726-15.662 0-8.836-7.164-15.133-16-15.133-7.758 0-72.197 0-80.495 0-8.836 0-16 6.297-16 15.133 0 7.714 5.46 14.151 12.726 15.662v38.466h-31.475c-6.093 0-11.657 3.46-14.351 8.925l-91.481 185.564c-5.221 10.592 2.472 23.075 14.351 23.075h32.671v208.298c0 8.836 7.164 16 16 16h373.125c8.836 0 16-7.164 16-16v-208.298h39.697c11.808 0 19.605-12.419 14.351-23.075zm-313.845-232.617v70.266h-23.044v-70.266zm-76.569 70.129h21.525v16.138c0 8.836 7.164 16 16 16h55.044c8.836 0 16-7.164 16-16v-16.138h152.272l-75.704 153.563h-260.84zm-36.759 185.563h179.217v192.298h-179.217zm266.959 192.298v-62.91c0-5.08 4.133-9.213 9.213-9.213s9.213 4.133 9.213 9.213v62.91zm74.167 0h-23.741v-62.91c0-22.725-18.488-41.213-41.213-41.213s-41.213 18.488-41.213 41.213v62.91h-23.742v-192.298h20.63c6.093 0 11.657-3.46 14.351-8.925l49.713-100.842 45.215 97.303zm26.207-224.298-53.258-114.613 8.259-16.754 64.761 131.366h-19.762z" fill="#2e58ff"/></svg>